<svg xmlns="http://www.w3.org/2000/svg" width="16" height="16" viewBox="0 0 16 16">
    <path fill="unset" fill-rule="evenodd" d="M10.245 13.5c-.212 1.044-1.138 1.833-2.245 1.833-1.096 0-2.014-.773-2.239-1.802l-.006-.031h4.49zM8 .667c.334 0 .606.267.611.6v.67c2.049.296 3.635 2.044 3.666 4.165V7.87c0 1.21.53 2.351 1.455 3.132.243.209.38.505.38.817 0 .584-.471 1.06-1.053 1.07H2.958c-.59 0-1.07-.48-1.07-1.07 0-.312.137-.608.375-.812.92-.778 1.449-1.904 1.459-3.1v-1.74c0-2.13 1.565-3.895 3.605-4.22l.062-.01v-.66c0-.337.274-.61.611-.61zm4.485.637c1.443 1.443 2.237 3.361 2.237 5.402 0 .337-.273.61-.61.61-.335 0-.606-.267-.612-.6v-.01c0-1.714-.667-3.325-1.88-4.538-.238-.239-.238-.625 0-.864.24-.239.626-.239.865 0zm-8.106 0c.24.24.24.625 0 .864-1.2 1.2-1.866 2.791-1.879 4.486v.052c0 .337-.274.61-.611.61-.337 0-.611-.273-.611-.61 0-2.04.794-3.96 2.237-5.402.239-.239.625-.239.864 0z"/>
</svg>
