<svg xmlns="http://www.w3.org/2000/svg" xmlns:xlink="http://www.w3.org/1999/xlink" width="24" height="24" viewBox="0 0 24 24">
  <defs>
    <path id="calculator-a" d="M18.5452224,2 L4.90891683,2 C4.40679986,2 4,2.40722538 4,2.90934235 L4,21.0906576 C4,21.5927746 4.40722538,22 4.90891683,22 L18.5452224,22 C19.0473394,22 19.4541393,21.5927746 19.4541393,21.0906576 L19.4541393,2.90934235 C19.4541393,2.40722538 19.0473394,2 18.5452224,2 Z M17.6358801,3.81783366 L17.6358801,6.54500968 L5.81783366,6.54500968 L5.81783366,3.81783366 L17.6358801,3.81783366 Z M5.81783366,20.1821663 L5.81783366,8.36326887 L17.6358801,8.36326887 L17.6358801,20.1808898 L5.81783366,20.1808898 L5.81783366,20.1821663 Z M9.0684028,9.16750707 L7.18120891,9.16750707 C6.93015042,9.16750707 6.72675049,9.37133252 6.72675049,9.62196549 L6.72675049,11.5104359 C6.72675049,11.7614944 6.93057595,11.9648944 7.18120891,11.9648944 L9.0684028,11.9648944 C9.31946129,11.9648944 9.52286122,11.7610689 9.52286122,11.5104359 L9.52286122,9.62196549 C9.52328674,9.37048148 9.32031233,9.16750707 9.0684028,9.16750707 Z M12.6700283,9.16750707 L10.7832599,9.16750707 C10.5322014,9.16750707 10.3288015,9.37133252 10.3288015,9.62196549 L10.3288015,11.5104359 C10.3288015,11.7614944 10.5322014,11.9648944 10.7832599,11.9648944 L12.6700283,11.9648944 C12.9210868,11.9648944 13.1244867,11.7610689 13.1244867,11.5104359 L13.1244867,9.62196549 C13.1249122,9.37048148 12.9210868,9.16750707 12.6700283,9.16750707 Z M16.2720793,9.16750707 L14.3848854,9.16750707 C14.1338269,9.16750707 13.9308525,9.37133252 13.9308525,9.62196549 L13.9308525,11.5104359 C13.9308525,11.7614944 14.1342525,11.9648944 14.3848854,11.9648944 L16.2720793,11.9648944 C16.5231378,11.9648944 16.7265377,11.7610689 16.7265377,11.5104359 L16.7265377,9.62196549 C16.7265377,9.37048148 16.5231378,9.16750707 16.2720793,9.16750707 Z M9.0684028,12.8742367 L7.18120891,12.8742367 C6.93015042,12.8742367 6.72675049,13.0776366 6.72675049,13.3282696 L6.72675049,15.2167401 C6.72675049,15.4677986 6.93057595,15.670773 7.18120891,15.670773 L9.0684028,15.670773 C9.31946129,15.670773 9.52286122,15.467373 9.52286122,15.2167401 L9.52286122,13.3282696 C9.52328674,13.0767856 9.32031233,12.8742367 9.0684028,12.8742367 Z M12.6700283,12.8742367 L10.7832599,12.8742367 C10.5322014,12.8742367 10.3288015,13.0776366 10.3288015,13.3282696 L10.3288015,15.2167401 C10.3288015,15.4677986 10.5322014,15.670773 10.7832599,15.670773 L12.6700283,15.670773 C12.9210868,15.670773 13.1244867,15.467373 13.1244867,15.2167401 L13.1244867,13.3282696 C13.1249122,13.0767856 12.9210868,12.8742367 12.6700283,12.8742367 Z M9.0684028,16.5809664 L7.18120891,16.5809664 C6.93015042,16.5809664 6.72675049,16.7843663 6.72675049,17.0345737 L6.72675049,18.9230442 C6.72675049,19.1749537 6.93057595,19.3775026 7.18120891,19.3775026 L9.0684028,19.3775026 C9.31946129,19.3775026 9.52286122,19.1736772 9.52286122,18.9230442 L9.52286122,17.0345737 C9.52328674,16.7835152 9.32031233,16.5809664 9.0684028,16.5809664 Z M12.6700283,16.5809664 L10.7832599,16.5809664 C10.5322014,16.5809664 10.3288015,16.7843663 10.3288015,17.0345737 L10.3288015,18.9230442 C10.3288015,19.1749537 10.5322014,19.3775026 10.7832599,19.3775026 L12.6700283,19.3775026 C12.9210868,19.3775026 13.1244867,19.1736772 13.1244867,18.9230442 L13.1244867,17.0345737 C13.1249122,16.7835152 12.9210868,16.5809664 12.6700283,16.5809664 Z M16.2720793,12.8742367 L14.3848854,12.8742367 C14.1338269,12.8742367 13.9308525,13.0776366 13.9308525,13.3282696 L13.9308525,18.9230442 C13.9308525,19.1749537 14.1342525,19.3775026 14.3848854,19.3775026 L16.2720793,19.3775026 C16.5231378,19.3775026 16.7265377,19.1736772 16.7265377,18.9230442 L16.7265377,13.3282696 C16.7265377,13.0767856 16.5231378,12.8742367 16.2720793,12.8742367 Z"/>
  </defs>
  <use fill-rule="evenodd" xlink:href="#calculator-a"/>
</svg>
