<svg xmlns="http://www.w3.org/2000/svg" width="24" height="24" viewBox="0 0 24 24">
    <path fill="#0D79BF" fill-rule="evenodd" d="M16.64 16.12c1.105 0 2.07.813 2.312 1.858l.007.032h4.497c.286 0 .515.229.515.515 0 .28-.22.506-.498.515H18.931c-.23 1.089-1.174 1.89-2.32 1.89-1.106 0-2.071-.813-2.313-1.858l-.007-.031H.516c-.287 0-.516-.23-.516-.516 0-.28.22-.506.498-.515H14.32c.229-1.089 1.174-1.89 2.32-1.89zm-.029 1.059c-.745 0-1.375.601-1.375 1.375 0 .773.63 1.374 1.375 1.374.773 0 1.375-.601 1.375-1.374 0-.774-.63-1.375-1.375-1.375zm-9.91-8.105c1.106 0 2.072.814 2.313 1.858l.007.032h14.463c.287 0 .516.23.516.516 0 .28-.22.506-.498.515H9.02c-.229 1.089-1.174 1.89-2.32 1.89-1.105 0-2.07-.814-2.312-1.858l-.007-.032H.516c-.287 0-.516-.229-.516-.515 0-.28.22-.506.498-.516h3.884c.229-1.088 1.174-1.89 2.32-1.89zm0 1.031c-.744 0-1.374.63-1.374 1.375 0 .773.63 1.374 1.375 1.374.773 0 1.374-.63 1.374-1.374 0-.774-.63-1.375-1.374-1.375zM11.6 2c1.106 0 2.071.814 2.313 1.858l.007.032h9.537c.286 0 .515.23.515.516 0 .28-.22.506-.498.515H13.89c-.229 1.089-1.174 1.89-2.32 1.89-1.105 0-2.07-.814-2.312-1.858l-.007-.032H.516C.229 4.921 0 4.692 0 4.406c0-.28.22-.506.498-.516H9.28C9.51 2.802 10.453 2 11.6 2zm0 1.06c-.773 0-1.375.601-1.375 1.374 0 .774.63 1.375 1.375 1.375.773 0 1.375-.63 1.375-1.375 0-.773-.63-1.374-1.375-1.374z"/>
</svg>
