<?xml version="1.0" encoding="UTF-8"?>
<svg width="134px" height="32px" viewBox="0 0 134 32" version="1.1" xmlns="http://www.w3.org/2000/svg" xmlns:xlink="http://www.w3.org/1999/xlink" style="background: #7B7B7B;">
    <title>AE9FCCF0-72C3-44DE-AD66-7A4BEC23A62E</title>
    <g id="Symbols" stroke="none" stroke-width="1" fill="none" fill-rule="evenodd">
        <g id="Wave">
            <path d="M121.9119,22 C124.75675,22 126.220648,23.0941288 128.534324,26.1089075 L128.753789,26.3971951 C130.774126,29.0713675 131.82562,29.9420943 133.79303,29.9971714 L133.9999,30 L133.9999,32 C131.15505,32 129.691152,30.9058712 127.377476,27.8910925 L127.158011,27.6028049 C125.068007,24.8364197 124.014816,24 121.9119,24 C119.878163,24 118.825738,24.7817264 116.869511,27.332659 L116.443982,27.891638 C114.130093,30.9059392 112.665904,32 109.8209,32 C106.97605,32 105.512152,30.9058712 103.198476,27.8910925 L102.979011,27.6028049 C100.889007,24.8364197 99.8358156,24 97.7329,24 C95.769729,24 94.7211294,24.7287239 92.8907077,27.0749844 L92.2660637,27.8915782 L91.8282921,28.4512424 C89.7578807,31.0425357 88.3050243,32 85.6439,32 C82.7983155,32 81.3338441,30.9057775 79.0197152,27.8911708 L78.8002083,27.6029001 C76.7096058,24.8364093 75.6561425,24 73.5529,24 C71.590616,24 70.5425269,24.7285946 68.7125584,27.0748811 L68.3078366,27.6027414 C65.8652141,30.8363969 64.4002862,32 61.4669,32 C58.6222499,32 57.1582722,30.9059178 54.8447363,27.8915782 L54.2203971,27.0753879 C52.3896706,24.7287239 51.341071,24 49.3779,24 C47.4144365,24 46.3656785,24.7286253 44.5348321,27.0746645 L43.9100033,27.8912306 L43.4720514,28.4509377 C41.4007808,31.0424318 39.9472294,32 37.2849,32 C34.4396693,32 32.9754095,30.9057561 30.6616337,27.891111 L30.2361783,27.3321363 C28.2805509,24.7815567 27.2285816,24 25.1959,24 C23.1608176,24 22.1078838,24.7816943 20.1503559,27.3328564 L19.9445488,27.6031222 C17.4996855,30.8365338 16.0334756,32 13.0979,32 C10.2512812,32 8.78632499,30.9059785 6.4708836,27.8913916 L6.2512512,27.6031222 C4.22909406,24.9287534 3.17659113,24.0579134 1.20699963,24.0028289 L0.9999,24 L0.9999,22 C3.75756196,22 5.21856597,23.0267136 7.4122673,25.8315923 L8.25170929,26.9247854 L8.63291162,27.403169 C10.2382427,29.3716702 11.2733433,30 13.0979,30 C15.1329824,30 16.1859162,29.2183057 18.1434441,26.6671436 L18.3492512,26.3968778 C20.7941145,23.1634662 22.2603244,22 25.1959,22 C28.0405501,22 29.5045278,23.0940822 31.8180637,26.1084218 L32.4424029,26.9246121 C34.2731294,29.2712761 35.321729,30 37.2849,30 C39.2489454,30 40.297957,29.2712363 42.1290419,26.9249044 L42.7538993,26.1083023 L43.1918042,25.5486525 C45.2628442,22.9574267 46.7161137,22 49.3779,22 C52.2231307,22 53.6873905,23.0942439 56.0011663,26.108889 L56.2206397,26.3971634 C58.3108657,29.1636136 59.364126,30 61.4669,30 C63.429184,30 64.4772731,29.2714054 66.3072416,26.9251189 L66.7119634,26.3972586 C69.1545859,23.1636031 70.6195138,22 73.5529,22 C76.3089976,22 77.769233,23.0267504 79.9614764,25.8313718 L80.800428,26.9245566 C82.6314862,29.2712562 83.6802918,30 85.6439,30 C87.6064891,30 88.6548351,29.2714145 90.4850182,26.9254468 L91.3238186,25.8322784 C93.5162744,23.0269223 94.9765828,22 97.7329,22 C100.57775,22 102.041648,23.0941288 104.355324,26.1089075 L104.574789,26.3971951 C106.664793,29.1635803 107.717984,30 109.8209,30 C111.783926,30 112.832478,29.2713946 114.662993,26.9253912 L115.068208,26.3970999 L115.287715,26.1088292 L115.7256,25.5491149 C117.796557,22.957587 119.249902,22 121.9119,22 Z M121.9119,11 C124.75675,11 126.220648,12.0941288 128.534324,15.1089075 L128.753789,15.3971951 C130.774126,18.0713675 131.82562,18.9420943 133.79303,18.9971714 L133.9999,19 L133.9999,21 C131.15505,21 129.691152,19.9058712 127.377476,16.8910925 L127.158011,16.6028049 C125.068007,13.8364197 124.014816,13 121.9119,13 C119.878163,13 118.825738,13.7817264 116.869511,16.332659 L116.443982,16.891638 C114.130093,19.9059392 112.665904,21 109.8209,21 C106.97605,21 105.512152,19.9058712 103.198476,16.8910925 L102.979011,16.6028049 C100.889007,13.8364197 99.8358156,13 97.7329,13 C95.769729,13 94.7211294,13.7287239 92.8907077,16.0749844 L92.2660637,16.8915782 L91.8282921,17.4512424 C89.7578807,20.0425357 88.3050243,21 85.6439,21 C82.7983155,21 81.3338441,19.9057775 79.0197152,16.8911708 L78.8002083,16.6029001 C76.7096058,13.8364093 75.6561425,13 73.5529,13 C71.590616,13 70.5425269,13.7285946 68.7125584,16.0748811 L68.3078366,16.6027414 C65.8652141,19.8363969 64.4002862,21 61.4669,21 C58.6222499,21 57.1582722,19.9059178 54.8447363,16.8915782 L54.2203971,16.0753879 C52.3896706,13.7287239 51.341071,13 49.3779,13 C47.4144365,13 46.3656785,13.7286253 44.5348321,16.0746645 L43.9100033,16.8912306 L43.4720514,17.4509377 C41.4007808,20.0424318 39.9472294,21 37.2849,21 C34.4396693,21 32.9754095,19.9057561 30.6616337,16.891111 L30.2361783,16.3321363 C28.2805509,13.7815567 27.2285816,13 25.1959,13 C23.1608176,13 22.1078838,13.7816943 20.1503559,16.3328564 L19.9445488,16.6031222 C17.4996855,19.8365338 16.0334756,21 13.0979,21 C10.2512812,21 8.78632499,19.9059785 6.4708836,16.8913916 L6.2512512,16.6031222 C4.22909406,13.9287534 3.17659113,13.0579134 1.20699963,13.0028289 L0.9999,13 L0.9999,11 C3.75756196,11 5.21856597,12.0267136 7.4122673,14.8315923 L8.25170929,15.9247854 L8.63291162,16.403169 C10.2382427,18.3716702 11.2733433,19 13.0979,19 C15.1329824,19 16.1859162,18.2183057 18.1434441,15.6671436 L18.3492512,15.3968778 C20.7941145,12.1634662 22.2603244,11 25.1959,11 C28.0405501,11 29.5045278,12.0940822 31.8180637,15.1084218 L32.4424029,15.9246121 C34.2731294,18.2712761 35.321729,19 37.2849,19 C39.2489454,19 40.297957,18.2712363 42.1290419,15.9249044 L42.7538993,15.1083023 L43.1918042,14.5486525 C45.2628442,11.9574267 46.7161137,11 49.3779,11 C52.2231307,11 53.6873905,12.0942439 56.0011663,15.108889 L56.2206397,15.3971634 C58.3108657,18.1636136 59.364126,19 61.4669,19 C63.429184,19 64.4772731,18.2714054 66.3072416,15.9251189 L66.7119634,15.3972586 C69.1545859,12.1636031 70.6195138,11 73.5529,11 C76.3089976,11 77.769233,12.0267504 79.9614764,14.8313718 L80.800428,15.9245566 C82.6314862,18.2712562 83.6802918,19 85.6439,19 C87.6064891,19 88.6548351,18.2714145 90.4850182,15.9254468 L91.3238186,14.8322784 C93.5162744,12.0269223 94.9765828,11 97.7329,11 C100.57775,11 102.041648,12.0941288 104.355324,15.1089075 L104.574789,15.3971951 C106.664793,18.1635803 107.717984,19 109.8209,19 C111.783926,19 112.832478,18.2713946 114.662993,15.9253912 L115.068208,15.3970999 L115.287715,15.1088292 L115.7256,14.5491149 C117.796557,11.957587 119.249902,11 121.9119,11 Z M121.9119,0 C124.75675,0 126.220648,1.09412877 128.534324,4.1089075 L128.753789,4.39719513 C130.774126,7.07136747 131.82562,7.94209428 133.79303,7.99717143 L133.9999,8 L133.9999,10 C131.15505,10 129.691152,8.90587123 127.377476,5.8910925 L127.158011,5.60280487 C125.068007,2.83641969 124.014816,2 121.9119,2 C119.878163,2 118.825738,2.78172644 116.869511,5.33265896 L116.443982,5.89163799 C114.130093,8.90593923 112.665904,10 109.8209,10 C106.97605,10 105.512152,8.90587123 103.198476,5.8910925 L102.979011,5.60280487 C100.889007,2.83641969 99.8358156,2 97.7329,2 C95.769729,2 94.7211294,2.72872393 92.8907077,5.07498439 L92.2660637,5.89157823 L91.8282921,6.45124241 C89.7578807,9.04253575 88.3050243,10 85.6439,10 C82.7983155,10 81.3338441,8.90577753 79.0197152,5.89117082 L78.8002083,5.6029001 C76.7096058,2.83640926 75.6561425,2 73.5529,2 C71.590616,2 70.5425269,2.72859462 68.7125584,5.07488109 L68.3078366,5.60274137 C65.8652141,8.83639688 64.4002862,10 61.4669,10 C58.6222499,10 57.1582722,8.90591778 54.8447363,5.89157823 L54.2203971,5.07538792 C52.3896706,2.72872393 51.341071,2 49.3779,2 C47.4144365,2 46.3656785,2.72862528 44.5348321,5.07466449 L43.9100033,5.89123064 L43.4720514,6.45093773 C41.4007808,9.04243181 39.9472294,10 37.2849,10 C34.4396693,10 32.9754095,8.90575606 30.6616337,5.89111098 L30.2361783,5.33213631 C28.2805509,2.78155666 27.2285816,2 25.1959,2 C23.1608176,2 22.1078838,2.78169432 20.1503559,5.33285637 L19.9445488,5.6031222 C17.4996855,8.83653375 16.0334756,10 13.0979,10 C10.2512812,10 8.78632499,8.90597848 6.4708836,5.8913916 L6.2512512,5.6031222 C4.22909406,2.92875337 3.17659113,2.05791342 1.20699963,2.00282895 L0.9999,2 L0.9999,0 C3.75756196,0 5.21856597,1.02671356 7.4122673,3.83159231 L8.25170929,4.92478543 L8.63291162,5.40316898 C10.2382427,7.3716702 11.2733433,8 13.0979,8 C15.1329824,8 16.1859162,7.21830568 18.1434441,4.66714363 L18.3492512,4.3968778 C20.7941145,1.16346625 22.2603244,0 25.1959,0 C28.0405501,0 29.5045278,1.09408222 31.8180637,4.10842177 L32.4424029,4.92461208 C34.2731294,7.27127607 35.321729,8 37.2849,8 C39.2489454,8 40.297957,7.27123635 42.1290419,4.92490444 L42.7538993,4.10830226 L43.1918042,3.54865248 C45.2628442,0.957426717 46.7161137,0 49.3779,0 C52.2231307,0 53.6873905,1.09424394 56.0011663,4.10888902 L56.2206397,4.39716338 C58.3108657,7.16361356 59.364126,8 61.4669,8 C63.429184,8 64.4772731,7.27140538 66.3072416,4.92511891 L66.7119634,4.39725863 C69.1545859,1.16360312 70.6195138,0 73.5529,0 C76.3089976,0 77.769233,1.02675039 79.9614764,3.83137176 L80.800428,4.92455656 C82.6314862,7.27125621 83.6802918,8 85.6439,8 C87.6064891,8 88.6548351,7.27141448 90.4850182,4.92544681 L91.3238186,3.83227844 C93.5162744,1.02692229 94.9765828,0 97.7329,0 C100.57775,0 102.041648,1.09412877 104.355324,4.1089075 L104.574789,4.39719513 C106.664793,7.16358031 107.717984,8 109.8209,8 C111.783926,8 112.832478,7.2713946 114.662993,4.92539116 L115.068208,4.3970999 L115.287715,4.10882918 L115.7256,3.54911488 C117.796557,0.957586988 119.249902,0 121.9119,0 Z" id="Shape" fill="#FFFFFF"></path>
        </g>
    </g>
</svg>
